<?xml version="1.0" encoding="UTF-8"?>
<svg xmlns="http://www.w3.org/2000/svg" version="1.1" width="452px" height="452px" style="shape-rendering:geometricPrecision; text-rendering:geometricPrecision; image-rendering:optimizeQuality; fill-rule:evenodd; clip-rule:evenodd" xmlns:xlink="http://www.w3.org/1999/xlink">
<path fill="black" d="M 211.5,0.5 C 212.748,1.3339 213.415,2.66723 213.5,4.5C 215.664,35.806 215.997,67.1393 214.5,98.5C 208.353,83.1842 198.353,71.0175 184.5,62C 177.96,58.2302 171.293,54.7302 164.5,51.5C 166.336,50.081 168.336,48.9143 170.5,48C 179.39,45.0747 188.39,42.5747 197.5,40.5C 202.168,27.1654 206.834,13.832 211.5,0.5 Z"/>
<path fill="black" d="M 238.5,-0.5 C 238.833,-0.5 239.167,-0.5 239.5,-0.5C 244.361,13.416 249.028,27.416 253.5,41.5C 265.145,42.8262 276.145,46.1595 286.5,51.5C 263.789,60.2087 247.123,75.542 236.5,97.5C 234.81,64.7219 235.476,32.0553 238.5,-0.5 Z"/>
<path fill="black" d="M 53.5,36.5 C 78.3725,46.6007 103.039,57.2674 127.5,68.5C 138.501,61.7764 150.334,57.1098 163,54.5C 177.15,60.5021 189.317,69.3355 199.5,81C 172.88,80.2036 150.714,89.7036 133,109.5C 130.096,112.642 128.262,116.309 127.5,120.5C 113.286,119.142 99.2864,116.809 85.5,113.5C 74.4337,87.9593 63.767,62.2926 53.5,36.5 Z"/>
<path fill="black" d="M 394.5,36.5 C 395.5,36.5 396.5,36.5 397.5,36.5C 387.224,62.3266 376.558,87.9933 365.5,113.5C 364.975,114.192 364.308,114.692 363.5,115C 350.174,116.999 336.841,118.832 323.5,120.5C 322.133,115.123 319.466,110.456 315.5,106.5C 297.725,89.3516 276.892,80.3516 253,79.5C 262.481,69.0114 273.648,60.8447 286.5,55C 299.768,56.8128 312.101,61.3128 323.5,68.5C 347.37,58.0607 371.037,47.394 394.5,36.5 Z"/>
<path fill="black" d="M 223.5,451.5 C 222.833,451.5 222.167,451.5 221.5,451.5C 215.634,448.31 210.634,443.977 206.5,438.5C 208.984,436.909 209.984,434.575 209.5,431.5C 201.692,358.631 193.692,285.797 185.5,213C 166.519,199.359 147.519,185.692 128.5,172C 119.883,169.461 111.216,167.127 102.5,165C 86.6667,148.5 70.8333,132 55,115.5C 54.3123,114.668 54.479,114.002 55.5,113.5C 109.418,131.25 163.085,149.584 216.5,168.5C 217.308,170.423 217.808,172.423 218,174.5C 219.85,266.835 221.683,359.169 223.5,451.5 Z"/>
<path fill="black" d="M 229.5,451.5 C 229.167,451.5 228.833,451.5 228.5,451.5C 229.276,377.494 230.443,303.494 232,229.5C 232.21,209.137 233.043,188.804 234.5,168.5C 287.974,149.712 341.641,131.378 395.5,113.5C 396.308,113.808 396.975,114.308 397.5,115C 380.982,131.017 364.982,147.517 349.5,164.5C 340.632,167.467 331.632,169.967 322.5,172C 303.667,185.5 284.833,199 266,212.5C 257.227,287.116 249.227,361.783 242,436.5C 243.067,437.191 244.234,437.691 245.5,438C 240.855,443.492 235.521,447.992 229.5,451.5 Z"/>
<path fill="black" d="M 77.5,117.5 C 106.783,120.766 136.116,125.266 165.5,131C 157.361,131.008 149.361,132.008 141.5,134C 140.223,135.786 138.556,136.952 136.5,137.5C 116.815,130.827 97.1488,124.161 77.5,117.5 Z"/>
<path fill="black" d="M 369.5,116.5 C 375.948,116.435 375.948,117.268 369.5,119C 351.162,125.17 332.828,131.337 314.5,137.5C 312.323,135.242 309.657,133.742 306.5,133C 299.551,131.878 292.551,131.211 285.5,131C 313.652,126.253 341.652,121.42 369.5,116.5 Z"/>
<path fill="black" d="M 75.5,145.5 C 83.479,152.812 91.1457,160.479 98.5,168.5C 104.397,170.578 110.397,172.244 116.5,173.5C 116.62,194.901 124.287,213.068 139.5,228C 133.833,233.667 128.167,239.333 122.5,245C 121.5,245.667 120.5,245.667 119.5,245C 94.6216,222.753 65.2883,211.92 31.5,212.5C 47.572,207.218 60.7387,197.885 71,184.5C 77.7262,172.127 79.2262,159.127 75.5,145.5 Z"/>
<path fill="black" d="M 374.5,145.5 C 369.7,171.234 378.7,190.734 401.5,204C 407.492,206.937 413.492,209.77 419.5,212.5C 385.723,211.912 356.39,222.746 331.5,245C 330.5,245.667 329.5,245.667 328.5,245C 322.985,239.652 317.652,234.152 312.5,228.5C 322.042,218.105 328.875,206.105 333,192.5C 334.107,186.213 334.607,179.88 334.5,173.5C 340.973,172.176 347.306,170.343 353.5,168C 360.338,160.329 367.338,152.829 374.5,145.5 Z"/>
<path fill="black" d="M 140.5,231.5 C 152.288,240.05 165.288,246.216 179.5,250C 188.344,309.738 197.011,369.572 205.5,429.5C 204.637,431.872 203.471,431.872 202,429.5C 190.747,410.664 179.747,391.664 169,372.5C 170.196,369.363 171.363,366.029 172.5,362.5C 168.526,327.564 157.359,295.231 139,265.5C 134.693,259.692 129.859,254.359 124.5,249.5C 129.856,243.48 135.189,237.48 140.5,231.5 Z"/>
<path fill="black" d="M 308.5,231.5 C 309.239,231.369 309.906,231.536 310.5,232C 316.018,237.684 321.351,243.517 326.5,249.5C 309.194,267.011 297.028,287.678 290,311.5C 284.177,329.442 280.844,347.775 280,366.5C 282.898,369.201 283.232,372.201 281,375.5C 271.252,392.665 261.252,409.665 251,426.5C 249.959,428.585 248.459,430.252 246.5,431.5C 254.041,371.244 262.208,310.91 271,250.5C 278.657,248.046 286.157,245.212 293.5,242C 298.956,239.026 303.956,235.526 308.5,231.5 Z"/>
</svg>
