<svg xmlns="http://www.w3.org/2000/svg" width="600" height="600"><path d="M296.7 0c-66.77.43-132.77 24.23-184.63 66.08l56.66 65.79c47.82-37.74 112.26-53.12 172.02-41.24 32.84 6.32 64.1 20.74 90.46 41.24l56.66-65.79C434.24 22.8 365.77-1.03 296.7 0zM93.63 82.25C33.93 138.34-1.08 219.88.03 302.12.06 387.49 39 471.35 103.68 526.82c59.78 52.28 141.09 78.92 220.46 72.18 86.01-6.41 167.65-52.34 218.12-122.14 49.13-66.33 68.37-153.8 52.06-234.91-11.99-62.09-44.54-119.64-90.84-162.41l-56.66 65.79c45.65 43.04 70.58 106.56 65.88 169.22-2.06 31.05-11.07 61.69-26.31 88.96L370.92 291.97l-58.26-125.58-.09 190.18 116.7 112.93c-52 40.4-123.35 53.8-186.58 35.89-25.74-7.18-50.12-19.23-71.31-35.4l117.49-113.42V166.19l-58.35 125.79-116.46 112.46c-35.53-62.02-36.38-142.21-2.18-204.93 10.69-20.09 24.84-38.43 41.26-54.18L96.47 79.54l-2.84 2.71z"/></svg>
