<svg id="Layer_1" data-name="Layer 1" xmlns="http://www.w3.org/2000/svg" viewBox="0 0 1500 700"><defs><style>.cls-1{fill:#fff;}</style></defs><title>Elo Hell Logo_H-M-Dark</title><polygon class="cls-1" points="168.67 359.99 182.89 343.93 268 387.21 221.15 300.72 231.47 289.05 316.34 332.61 269.12 246.21 283.76 230 351.77 355.1 340.45 367.89 255.44 323.82 302.71 410.52 290.96 423.79 168.67 359.99"/><polygon class="cls-1" points="396.86 171.8 284.21 171.8 431.39 350 284.21 528.2 396.86 528.2 544.03 350 396.86 171.8"/><polygon class="cls-1" points="103.53 348.73 209.62 230.61 114.37 348.32 203.11 459.02 103.53 348.73"/><polygon class="cls-1" points="656.03 422.7 656.03 407.41 618.21 407.41 609.67 407.41 602.27 407.41 602.27 511.78 609.67 511.78 618.21 511.78 656.03 511.78 656.03 496.49 618.21 496.49 618.21 467.63 650.94 467.63 650.94 452.27 618.21 452.27 618.21 422.7 656.03 422.7"/><path class="cls-1" d="M733.43,510a23.54,23.54,0,0,1-10.23-8.43,30.51,30.51,0,0,1-4.74-14l15.43-3.52q1.08,6.62,4.88,10T749,497.49q6.81,0,10.51-3.08t3.7-8.76v-5.88a10,10,0,0,0-2.15-6.61,15.67,15.67,0,0,0-5.46-4.13,89.81,89.81,0,0,0-8.9-3.41h-.18a.38.38,0,0,1-.25-.14l-.93-.29a83.62,83.62,0,0,1-12.92-5.42,23.74,23.74,0,0,1-8.62-8.21q-3.51-5.46-3.51-14.43V433.4a29.25,29.25,0,0,1,3.48-14.72A22.17,22.17,0,0,1,734,409.46a38.2,38.2,0,0,1,16.19-3.12,31.91,31.91,0,0,1,14,2.8,22.29,22.29,0,0,1,9.26,8.25A32.45,32.45,0,0,1,778,431L763,434.62q-1.15-6.39-4.49-9.69a11.7,11.7,0,0,0-8.58-3.3q-6.53,0-10.19,3a10.2,10.2,0,0,0-3.66,8.37v4.23a10.5,10.5,0,0,0,2.15,6.82,14.78,14.78,0,0,0,5.49,4.16q3.35,1.51,9.08,3.52l.83.29.82.28.54.18a3.77,3.77,0,0,0,.68.18,77,77,0,0,1,12.1,5.24,22.7,22.7,0,0,1,8,7.93q3.3,5.28,3.3,14v5.88a29,29,0,0,1-3.55,14.75,22.65,22.65,0,0,1-10.34,9.3q-6.78,3.15-16.47,3.15A37.75,37.75,0,0,1,733.43,510Z"/><path class="cls-1" d="M899.89,419.87a22.06,22.06,0,0,0-9.26-9.26,30,30,0,0,0-14.32-3.2H844.16V511.78h15.93V471.3h16.22a30.21,30.21,0,0,0,14.25-3.16,22.34,22.34,0,0,0,9.3-9.12,28.44,28.44,0,0,0,3.3-14V434.11A29.56,29.56,0,0,0,899.89,419.87Zm-13.17,24.22a15.44,15.44,0,0,1-1.22,6.39,9,9,0,0,1-3.55,4.16,10.26,10.26,0,0,1-5.49,1.44H860.09V422.63h16.37a10.26,10.26,0,0,1,5.49,1.44,9,9,0,0,1,3.55,4.23,16.33,16.33,0,0,1,1.22,6.6Z"/><path class="cls-1" d="M983,509.19a25.52,25.52,0,0,1-10.48-10.44,33.22,33.22,0,0,1-3.69-16.11V436.56a33.44,33.44,0,0,1,3.69-16.15A25.26,25.26,0,0,1,983,410a37.68,37.68,0,0,1,32.23,0,25.26,25.26,0,0,1,10.48,10.45,33.44,33.44,0,0,1,3.7,16.15v46.08a33.22,33.22,0,0,1-3.7,16.11,25.52,25.52,0,0,1-10.48,10.44,37.31,37.31,0,0,1-32.23,0Zm23.62-13.85a11.7,11.7,0,0,0,4.84-5.1,17.28,17.28,0,0,0,1.65-7.82V436.77a17.31,17.31,0,0,0-1.65-7.82,11.81,11.81,0,0,0-4.84-5.1,16.61,16.61,0,0,0-15,0,11.77,11.77,0,0,0-4.85,5.1,17.31,17.31,0,0,0-1.65,7.82v45.65a17.28,17.28,0,0,0,1.65,7.82,11.66,11.66,0,0,0,4.85,5.1,16.53,16.53,0,0,0,15,0Z"/><path class="cls-1" d="M1139.79,511.78h18l-18.76-46a24.13,24.13,0,0,0,2.32-1,22.77,22.77,0,0,0,9.62-9.22,28.56,28.56,0,0,0,3.37-14.25v-7.82a27.75,27.75,0,0,0-3.34-13.93,22.34,22.34,0,0,0-9.58-9,32.48,32.48,0,0,0-14.86-3.16H1095V511.78h15.86V468h12.22Zm-28.93-89.22h16.37A11.48,11.48,0,0,1,1133,424a8.89,8.89,0,0,1,3.73,4.05,14.63,14.63,0,0,1,1.26,6.32v7.11a14.24,14.24,0,0,1-1.33,6,9.07,9.07,0,0,1-3.73,3.95,11.48,11.48,0,0,1-5.71,1.4h-16.37Z"/><polygon class="cls-1" points="1276.26 407.41 1216.32 407.41 1216.32 422.63 1238.36 422.63 1238.36 511.78 1254.22 511.78 1254.22 422.63 1276.26 422.63 1276.26 407.41"/><path class="cls-1" d="M1350.11,510a23.65,23.65,0,0,1-10.23-8.43,30.62,30.62,0,0,1-4.73-14l15.43-3.52q1.08,6.62,4.88,10t10.26,3.41q6.83,0,10.52-3.08t3.7-8.76v-5.88a10,10,0,0,0-2.16-6.61,15.54,15.54,0,0,0-5.45-4.13,89.81,89.81,0,0,0-8.9-3.41h-.18a.36.36,0,0,1-.25-.14l-.94-.29a84,84,0,0,1-12.92-5.42,23.71,23.71,0,0,1-8.61-8.21q-3.51-5.46-3.52-14.43V433.4a29.25,29.25,0,0,1,3.48-14.72,22.19,22.19,0,0,1,10.2-9.22,38.15,38.15,0,0,1,16.18-3.12,32,32,0,0,1,14,2.8,22.26,22.26,0,0,1,9.25,8.25,32.31,32.31,0,0,1,4.49,13.64l-14.93,3.59q-1.14-6.39-4.49-9.69a11.66,11.66,0,0,0-8.57-3.3q-6.54,0-10.19,3a10.2,10.2,0,0,0-3.67,8.37v4.23A10.45,10.45,0,0,0,1355,444a14.62,14.62,0,0,0,5.49,4.16q3.33,1.51,9.08,3.52l.82.29.83.28.54.18a3.57,3.57,0,0,0,.68.18,76.39,76.39,0,0,1,12.09,5.24,22.64,22.64,0,0,1,8,7.93q3.3,5.28,3.3,14v5.88a29,29,0,0,1-3.55,14.75,22.7,22.7,0,0,1-10.34,9.3q-6.78,3.15-16.47,3.15A37.8,37.8,0,0,1,1350.11,510Z"/><polygon class="cls-1" points="690.62 214.42 690.62 185.15 632.92 185.15 616.97 185.15 602.4 185.15 602.4 386.82 616.97 386.82 632.92 386.82 690.62 386.82 690.62 357.55 632.92 357.55 632.92 301.24 683.68 301.24 683.68 272.12 632.92 272.12 632.92 214.42 690.62 214.42"/><polygon class="cls-1" points="737.33 357.83 737.33 185.15 706.81 185.15 706.81 386.82 721.1 386.82 737.33 386.82 792.25 386.82 792.25 357.83 737.33 357.83"/><path class="cls-1" d="M824.66,383.07a40.32,40.32,0,0,1-17.41-16.78q-6-10.95-6-26.49V232.17q0-15.54,6-26.56a39.83,39.83,0,0,1,17.41-16.78q11.37-5.76,27.46-5.76t27.46,5.76A39.88,39.88,0,0,1,897,205.61q6,11,6,26.56V339.8q0,15.54-6,26.49a40.38,40.38,0,0,1-17.41,16.78q-11.37,5.83-27.46,5.83T824.66,383.07Zm38.42-26.63A16.37,16.37,0,0,0,870,349.3a24.45,24.45,0,0,0,2.36-11.16V233.69A24.45,24.45,0,0,0,870,222.53a16,16,0,0,0-6.93-7.07,25.93,25.93,0,0,0-21.92,0,16,16,0,0,0-6.93,7.07,24.32,24.32,0,0,0-2.36,11.16V338.14a24.32,24.32,0,0,0,2.36,11.16,16.37,16.37,0,0,0,6.93,7.14,25.27,25.27,0,0,0,21.92,0Z"/><polygon class="cls-1" points="1019.02 185.15 1019.02 273.08 985.45 273.08 985.45 185.15 954.94 185.15 954.94 386.82 985.45 386.82 985.45 301.8 1019.02 301.8 1019.02 386.82 1049.53 386.82 1049.53 185.15 1019.02 185.15"/><polygon class="cls-1" points="1160.99 214.42 1160.99 185.15 1103.29 185.15 1087.34 185.15 1072.78 185.15 1072.78 386.82 1087.34 386.82 1103.29 386.82 1160.99 386.82 1160.99 357.55 1103.29 357.55 1103.29 301.24 1154.05 301.24 1154.05 272.12 1103.29 272.12 1103.29 214.42 1160.99 214.42"/><polygon class="cls-1" points="1210.6 357.83 1210.6 185.15 1180.09 185.15 1180.09 386.82 1194.37 386.82 1210.6 386.82 1276.1 386.82 1276.1 357.83 1210.6 357.83"/><polygon class="cls-1" points="1322.2 357.83 1322.2 185.15 1291.69 185.15 1291.69 386.82 1305.97 386.82 1322.2 386.82 1396.46 386.82 1396.46 357.83 1322.2 357.83"/></svg>