<svg xmlns="http://www.w3.org/2000/svg" viewBox="0 0 1759.189 684.813">
  <path id="Color_Fill_3" data-name="Color Fill 3" fill="black" d="M906.274,345.869L926.338,364.6s-2.508,46.983,42.8,92.3,92.3,44.141,92.3,44.141l18.72,18.727s-15.88,100.32,50.83,151.15c0,0-11.53,21.067-36.11,21.4s-38.79,0-38.79,0-34.95-8.025-34.78-36.115,0-66.881,0-66.881-40.631-7.356-72.232-30.765L903.6,602.691S875.342,627.1,851.432,606.7s-30.765-32.1-30.765-32.1-20.231-26.585,0-46.817,48.154-49.491,48.154-49.491a223.842,223.842,0,0,1-30.765-72.231h-66.88s-36-5.537-36.116-36.116c-0.1-25.094,0-40.128,0-40.128s-0.5-18.392,21.4-33.44C756.462,296.378,799.6,358.576,906.274,345.869Z" transform="translate(-735.031 -7.656)"/>
  <path id="Color_Fill_3_copy" data-name="Color Fill 3 copy" fill="black" d="M1249.16,354.229L1229.1,335.5s2.51-46.984-42.81-92.295S1094,199.066,1094,199.066l-18.73-18.726s15.89-100.321-50.83-151.15c0,0,11.54-21.067,36.12-21.4s38.79,0,38.79,0,34.95,8.026,34.78,36.116,0,66.881,0,66.881,40.63,7.357,72.23,30.765l45.48-44.141S1280.09,73,1304,93.4s30.77,32.1,30.77,32.1,20.23,26.585,0,46.816-48.15,49.492-48.15,49.492a224,224,0,0,1,30.76,72.231h66.88s36,5.536,36.12,36.115c0.09,25.094,0,40.129,0,40.129s0.5,18.392-21.4,33.44C1398.98,403.721,1355.84,341.522,1249.16,354.229Z" transform="translate(-735.031 -7.656)"/>
  <path id="Color_Fill_1" data-name="Color Fill 1" fill="var(--primary, #ed6516)" d="M922.284,307.246L1120.25,505.212s-26.92,96.475,57.52,156.5,130.25,15.215,108.34-6.688-54.84-54.842-54.84-54.842-18.56-40.3,16.05-74.907,72.07-28.257,80.26-20.064,53.5,53.505,53.5,53.505,56.02,25.749,32.11-60.193c-23.43-84.195-101.83-119.047-180.58-105.671L1035.98,196.224s18.11-88.038-52.166-152.488c-70.785-64.921-135.883-22.186-121.723-5.35,13.932,16.564,62.868,62.868,62.868,62.868s17.723,37.118-18.726,73.568-70.559,29.762-78.92,21.4L776.484,145.4s-59.515-45.794-34.778,61.53C764.684,306.611,892.188,318.615,922.284,307.246Z" transform="translate(-735.031 -7.656)"/>
  <g>
    <rect id="Rounded_Rectangle_1" data-name="Rounded Rectangle 1" fill="var(--primary, #ed6516)" x="305.849" y="237.344" width="1453.34" height="209.531" rx="50" ry="50"/>
    <circle fill="white" cx="1196.314" cy="385.75" r="15.435"/>
    <path id="Workshop_codes" data-name="Workshop  codes" fill="white" d="M1132.88,410.416h25.8a2.648,2.648,0,0,0,2.77-2.424l10.91-59.387a0.6,0.6,0,0,1,.52-0.52,0.605,0.605,0,0,1,.52.52l12.46,59.56a2.7,2.7,0,0,0,2.95,2.251h27.7a2.6,2.6,0,0,0,2.77-2.251l30.82-116a2.451,2.451,0,0,0-.26-2.164,2.38,2.38,0,0,0-1.99-.779h-29.61a2.6,2.6,0,0,0-2.77,2.251l-12.98,56.444a0.714,0.714,0,0,1-.52.693,0.694,0.694,0,0,1-.52-0.693l-12.99-56.444a2.6,2.6,0,0,0-2.77-2.251h-25.28a2.7,2.7,0,0,0-2.94,2.251l-11.6,56.444c-0.12.463-.29,0.666-0.52,0.606a0.8,0.8,0,0,1-.52-0.606l-14.72-56.444a2.6,2.6,0,0,0-2.77-2.251h-29.43q-2.43,0-2.43,2.078a1.86,1.86,0,0,0,.18.865l34.28,116.005a2.39,2.39,0,0,0,1.04,1.645,3.212,3.212,0,0,0,1.9.606h0ZM1292,412.494q14.55,0,25.54-5.8a41.744,41.744,0,0,0,17.05-16.276q6.06-10.473,6.06-24.326V333.541a46.538,46.538,0,0,0-6.06-23.893,41.359,41.359,0,0,0-17.05-16.1q-10.995-5.715-25.54-5.714-14.37,0-25.36,5.714a41.325,41.325,0,0,0-17.06,16.1,46.538,46.538,0,0,0-6.06,23.893v32.551q0,13.854,6.06,24.326a41.709,41.709,0,0,0,17.06,16.276q10.98,5.8,25.36,5.8h0Zm0-27.876a14.959,14.959,0,0,1-11.51-4.761q-4.425-4.761-4.42-12.726V333.2q0-7.962,4.42-12.726a14.97,14.97,0,0,1,11.51-4.761,15.2,15.2,0,0,1,11.69,4.761q4.41,4.764,4.41,12.726v33.936q0,7.965-4.41,12.726a15.189,15.189,0,0,1-11.69,4.761h0Zm115.66,25.8h29.08a2.834,2.834,0,0,0,1.74-.519,1.645,1.645,0,0,0,.69-1.385,7.582,7.582,0,0,0-.35-1.212l-21.99-45.71a0.824,0.824,0,0,1,.52-1.212,32.661,32.661,0,0,0,15.5-12.553,35.612,35.612,0,0,0,5.63-20,40.333,40.333,0,0,0-4.94-20.171,34.544,34.544,0,0,0-13.85-13.592,42.675,42.675,0,0,0-20.69-4.848h-52.46a2.394,2.394,0,0,0-2.6,2.6V407.819a2.393,2.393,0,0,0,2.6,2.6h27.35a2.393,2.393,0,0,0,2.6-2.6V364.707a0.768,0.768,0,0,1,.87-0.866h7.27a1.115,1.115,0,0,1,1.04.693l19.04,43.978a2.821,2.821,0,0,0,2.95,1.9h0Zm-30.3-93.323h16.27a13.194,13.194,0,0,1,9.01,3.03,10.2,10.2,0,0,1,3.46,8.051,10,10,0,0,1-3.46,7.878,13.179,13.179,0,0,1-9.01,3.03h-16.27a0.767,0.767,0,0,1-.87-0.866V317.959a0.767,0.767,0,0,1,.87-0.866h0Zm67,93.323h27.36a2.391,2.391,0,0,0,2.59-2.6V378.212a2.707,2.707,0,0,1,.35-1.039l7.27-11.081a0.922,0.922,0,0,1,.7-0.519,0.605,0.605,0,0,1,.52.519l23.89,42.593a3.162,3.162,0,0,0,3.12,1.731h30.64q2.25,0,2.25-1.558a2.512,2.512,0,0,0-.52-1.558l-37.22-63.716a1.106,1.106,0,0,1,0-1.212l36.01-50.038a3.068,3.068,0,0,0,.52-1.559c0-1.039-.69-1.558-2.08-1.558h-30.99a3.666,3.666,0,0,0-3.29,1.558l-30.13,42.766q-0.345.52-.69,0.347a0.7,0.7,0,0,1-.35-0.693V291.814a2.393,2.393,0,0,0-2.59-2.6h-27.36a2.407,2.407,0,0,0-2.6,2.6V407.819a2.405,2.405,0,0,0,2.6,2.6h0Zm139.55,1.385q14.025,0,24.59-4.5a37.455,37.455,0,0,0,16.45-12.9q5.88-8.4,5.88-20a30,30,0,0,0-7.27-20.344,37.548,37.548,0,0,0-18.09-11.6q-10.83-3.2-12.21-3.722-10.035-3.117-14.89-5.108a24.084,24.084,0,0,1-7.18-4.156,6.918,6.918,0,0,1-2.34-5.28,7.188,7.188,0,0,1,3.2-6.233q3.21-2.249,8.74-2.251,7.965,0,12.64,4.242t4.68,9.436v0.173a2.393,2.393,0,0,0,2.6,2.6h26.83a2.393,2.393,0,0,0,2.6-2.6V328a36.077,36.077,0,0,0-6.32-20.95,41.317,41.317,0,0,0-17.31-14.2,58.317,58.317,0,0,0-24.5-5.021,57.158,57.158,0,0,0-23.12,4.5,37.69,37.69,0,0,0-16.19,12.9,32.825,32.825,0,0,0-5.88,19.305q0,16.45,11.6,25.1t28.74,13.852l5.02,1.385q9.18,2.772,12.64,4.675a6.143,6.143,0,0,1,3.46,5.713,8.148,8.148,0,0,1-2.77,5.974q-2.775,2.686-9.17,2.684-8.49,0-13.6-3.723t-5.1-8.571v-1.038a2.407,2.407,0,0,0-2.6-2.6H1538.2a2.407,2.407,0,0,0-2.6,2.6v2.424a35.609,35.609,0,0,0,5.98,20.43,38.23,38.23,0,0,0,16.88,13.592q10.9,4.764,25.45,4.761h0Zm110.98-119.987v42.42a0.763,0.763,0,0,1-.86.866h-27.01a0.767,0.767,0,0,1-.87-0.866v-42.42a2.394,2.394,0,0,0-2.6-2.6H1636.2a2.394,2.394,0,0,0-2.6,2.6V407.819a2.393,2.393,0,0,0,2.6,2.6h27.35a2.393,2.393,0,0,0,2.6-2.6V363.841a0.768,0.768,0,0,1,.87-0.866h27.01a0.765,0.765,0,0,1,.86.866v43.978a2.405,2.405,0,0,0,2.6,2.6h27.36a2.391,2.391,0,0,0,2.59-2.6v-116a2.393,2.393,0,0,0-2.59-2.6h-27.36a2.407,2.407,0,0,0-2.6,2.6h0Zm82.76,120.68q14.55,0,25.54-5.8a41.77,41.77,0,0,0,17.06-16.276q6.06-10.473,6.06-24.326V333.541a46.538,46.538,0,0,0-6.06-23.893,41.385,41.385,0,0,0-17.06-16.1q-11-5.715-25.54-5.714-14.37,0-25.36,5.714a41.385,41.385,0,0,0-17.06,16.1,46.538,46.538,0,0,0-6.06,23.893v32.551q0,13.854,6.06,24.326a41.77,41.77,0,0,0,17.06,16.276q10.995,5.8,25.36,5.8h0Zm0-27.876a14.959,14.959,0,0,1-11.51-4.761q-4.41-4.761-4.42-12.726V333.2q0-7.962,4.42-12.726a14.97,14.97,0,0,1,11.51-4.761,15.185,15.185,0,0,1,11.69,4.761q4.41,4.764,4.42,12.726v33.936q0,7.965-4.42,12.726a15.174,15.174,0,0,1-11.69,4.761h0Zm104.75-95.4h-50.73a2.407,2.407,0,0,0-2.6,2.6V407.819a2.405,2.405,0,0,0,2.6,2.6h27.36a2.405,2.405,0,0,0,2.6-2.6V368.862a0.761,0.761,0,0,1,.86-0.866h18.35a49.33,49.33,0,0,0,22.34-4.847,36.082,36.082,0,0,0,15.06-13.679,38.529,38.529,0,0,0,5.37-20.43,41.809,41.809,0,0,0-5.11-20.864,34.878,34.878,0,0,0-14.45-14.024,45.726,45.726,0,0,0-21.65-4.935h0Zm-5.36,52.808h-14.55a0.759,0.759,0,0,1-.86-0.865v-23.2a0.76,0.76,0,0,1,.86-0.866h14.55q6.39,0,10.3,3.463a11.7,11.7,0,0,1,3.89,9.176,11.237,11.237,0,0,1-3.89,8.917q-3.9,3.376-10.3,3.376h0ZM2022.99,411.8q14.19,0,25.02-5.28a40.01,40.01,0,0,0,16.79-14.8,40.438,40.438,0,0,0,5.98-21.989c0-1.039-.87-1.615-2.6-1.732l-27.36-1.385a2.5,2.5,0,0,0-1.9.347,1.825,1.825,0,0,0-.69,1.558q0,6.927-4.16,11.168t-11.08,4.242q-6.93,0-11.08-4.242t-4.16-11.168V331.29q0-7.1,4.16-11.34t11.08-4.242q6.93,0,11.08,4.242t4.16,11.34q0,1.908,2.07,1.9h0.52l27.36-1.731c1.73-.23,2.6-0.866,2.6-1.9a38.834,38.834,0,0,0-22.77-36.533q-10.83-5.195-25.02-5.194-14.205,0-25.02,5.54a40.627,40.627,0,0,0-16.79,15.583,44.45,44.45,0,0,0-5.98,23.2v34.975a45.235,45.235,0,0,0,5.98,23.46,40.42,40.42,0,0,0,16.79,15.67q10.815,5.542,25.02,5.54h0Zm97.48,0.693q14.535,0,25.54-5.8a41.744,41.744,0,0,0,17.05-16.276q6.06-10.473,6.06-24.326V333.541a46.538,46.538,0,0,0-6.06-23.893,41.359,41.359,0,0,0-17.05-16.1q-11-5.715-25.54-5.714-14.37,0-25.37,5.714a41.359,41.359,0,0,0-17.05,16.1,46.538,46.538,0,0,0-6.06,23.893v32.551q0,13.854,6.06,24.326a41.744,41.744,0,0,0,17.05,16.276q10.995,5.8,25.37,5.8h0Zm0-27.876a14.981,14.981,0,0,1-11.52-4.761q-4.41-4.761-4.41-12.726V333.2q0-7.962,4.41-12.726a14.991,14.991,0,0,1,11.52-4.761,15.2,15.2,0,0,1,11.69,4.761q4.41,4.764,4.41,12.726v33.936q0,7.965-4.41,12.726a15.189,15.189,0,0,1-11.69,4.761h0Zm54.54,25.8h44.49a60.229,60.229,0,0,0,24.85-4.848,38.346,38.346,0,0,0,16.71-13.678,36,36,0,0,0,5.88-20.431V328.174a36.006,36.006,0,0,0-5.88-20.431,38.367,38.367,0,0,0-16.71-13.678,60.278,60.278,0,0,0-24.85-4.848h-44.49a2.394,2.394,0,0,0-2.6,2.6V407.819a2.393,2.393,0,0,0,2.6,2.6h0Zm29.95-28.741V317.959a0.767,0.767,0,0,1,.87-0.866h14.71a12.406,12.406,0,0,1,10.04,4.588q3.81,4.59,3.81,12.033v32.2q-0.165,7.446-3.98,12.033a12.045,12.045,0,0,1-9.69,4.588h-14.89a0.766,0.766,0,0,1-.87-0.865h0ZM2358.54,314.5V291.814a2.407,2.407,0,0,0-2.6-2.6h-82.59a2.407,2.407,0,0,0-2.6,2.6V407.819a2.405,2.405,0,0,0,2.6,2.6h82.59a2.405,2.405,0,0,0,2.6-2.6V385.138a2.407,2.407,0,0,0-2.6-2.6h-51.77a0.766,0.766,0,0,1-.87-0.865V363.668a0.768,0.768,0,0,1,.87-0.866h32.03a2.556,2.556,0,0,0,1.9-.692,2.581,2.581,0,0,0,.7-1.905V337.7a2.591,2.591,0,0,0-.7-1.905,2.563,2.563,0,0,0-1.9-.692h-32.03a0.767,0.767,0,0,1-.87-0.866V317.959a0.767,0.767,0,0,1,.87-0.866h51.77a2.407,2.407,0,0,0,2.6-2.6h0Zm48.13,97.305q14.025,0,24.58-4.5a37.4,37.4,0,0,0,16.45-12.9q5.88-8.4,5.89-20a30.052,30.052,0,0,0-7.27-20.344,37.531,37.531,0,0,0-18.1-11.6q-10.815-3.2-12.2-3.722-10.05-3.117-14.89-5.108a24.155,24.155,0,0,1-7.19-4.156,6.918,6.918,0,0,1-2.34-5.28,7.2,7.2,0,0,1,3.21-6.233c2.13-1.5,5.05-2.251,8.74-2.251q7.965,0,12.64,4.242t4.67,9.436v0.173a2.405,2.405,0,0,0,2.6,2.6h26.84a2.556,2.556,0,0,0,1.9-.692,2.581,2.581,0,0,0,.7-1.9V328a36.077,36.077,0,0,0-6.32-20.95,41.408,41.408,0,0,0-17.32-14.2,58.285,58.285,0,0,0-24.5-5.021,57.109,57.109,0,0,0-23.11,4.5,37.632,37.632,0,0,0-16.19,12.9,32.762,32.762,0,0,0-5.89,19.305q0,16.45,11.6,25.1t28.74,13.852l5.03,1.385q9.165,2.772,12.64,4.675a6.16,6.16,0,0,1,3.46,5.713,8.185,8.185,0,0,1-2.77,5.974q-2.775,2.686-9.18,2.684-8.49,0-13.59-3.723-5.115-3.721-5.11-8.571v-1.038a2.394,2.394,0,0,0-2.6-2.6h-26.83a2.394,2.394,0,0,0-2.6,2.6v2.424a35.6,35.6,0,0,0,5.97,20.43,38.259,38.259,0,0,0,16.89,13.592q10.905,4.764,25.45,4.761h0Z" transform="translate(-735.031 -7.656)"/>
  </g>
</svg>
