<svg xmlns="http://www.w3.org/2000/svg" viewBox="0 0 685.379 684.813">
  <path id="Color_Fill_3" data-name="Color Fill 3" fill="black" d="M906.274,345.869L926.338,364.6s-2.508,46.983,42.8,92.3,92.3,44.141,92.3,44.141l18.72,18.727s-15.88,100.32,50.83,151.15c0,0-11.53,21.067-36.11,21.4s-38.79,0-38.79,0-34.95-8.025-34.78-36.115,0-66.881,0-66.881-40.631-7.356-72.232-30.765L903.6,602.691S875.342,627.1,851.432,606.7s-30.765-32.1-30.765-32.1-20.231-26.585,0-46.817,48.154-49.491,48.154-49.491a223.842,223.842,0,0,1-30.765-72.231h-66.88s-36-5.537-36.116-36.116c-0.1-25.094,0-40.128,0-40.128s-0.5-18.392,21.4-33.44C756.462,296.378,799.6,358.576,906.274,345.869Z" transform="translate(-735.031 -7.656)"/>
  <path id="Color_Fill_3_copy" data-name="Color Fill 3 copy" fill="black" d="M1249.16,354.229L1229.1,335.5s2.51-46.984-42.81-92.295S1094,199.066,1094,199.066l-18.73-18.726s15.89-100.321-50.83-151.15c0,0,11.54-21.067,36.12-21.4s38.79,0,38.79,0,34.95,8.026,34.78,36.116,0,66.881,0,66.881,40.63,7.357,72.23,30.765l45.48-44.141S1280.09,73,1304,93.4s30.77,32.1,30.77,32.1,20.23,26.585,0,46.816-48.15,49.492-48.15,49.492a224,224,0,0,1,30.76,72.231h66.88s36,5.536,36.12,36.115c0.09,25.094,0,40.129,0,40.129s0.5,18.392-21.4,33.44C1398.98,403.721,1355.84,341.522,1249.16,354.229Z" transform="translate(-735.031 -7.656)"/>
  <path id="Color_Fill_1" data-name="Color Fill 1" fill="var(--primary)" d="M922.284,307.246L1120.25,505.212s-26.92,96.475,57.52,156.5,130.25,15.215,108.34-6.688-54.84-54.842-54.84-54.842-18.56-40.3,16.05-74.907,72.07-28.257,80.26-20.064,53.5,53.505,53.5,53.505,56.02,25.749,32.11-60.193c-23.43-84.195-101.83-119.047-180.58-105.671L1035.98,196.224s18.11-88.038-52.166-152.488c-70.785-64.921-135.883-22.186-121.723-5.35,13.932,16.564,62.868,62.868,62.868,62.868s17.723,37.118-18.726,73.568-70.559,29.762-78.92,21.4L776.484,145.4s-59.515-45.794-34.778,61.53C764.684,306.611,892.188,318.615,922.284,307.246Z" transform="translate(-735.031 -7.656)"/>
</svg>
