<svg
   viewBox="0 0 270.25 270.062"
   version="1.1"
   xmlns="http://www.w3.org/2000/svg"
   xmlns:svg="http://www.w3.org/2000/svg">
  <path
     id="Color_Fill_3"
     data-name="Color Fill 3"
     fill="var(--cog-color, black)"
     d="m 202.722,133.355 -7.911,7.384 c 0,0 0.989,18.524 -16.877,36.39 -17.866,17.866 -36.39,17.4 -36.39,17.4 l -7.383,7.383 c 0,0 6.263,39.555 -20.041,59.6 0,0 4.524,8.372 14.215,8.5 9.691,0.128 15.319,-0.065 15.319,-0.065 0,0 13.778,-3.165 13.712,-14.24 -0.066,-11.075 0,-26.369 0,-26.369 0,0 16.02,-2.9 28.479,-12.13 l 17.932,17.4 c 0,0 11.141,9.625 20.568,1.583 9.427,-8.042 12.13,-12.658 12.13,-12.658 0,0 7.977,-10.482 0,-18.458 -7.977,-7.976 -18.986,-19.514 -18.986,-19.514 a 88.262,88.262 0 0 0 12.13,-28.479 h 26.369 c 0,0 14.194,-2.183 14.24,-14.24 0.038,-9.894 0,-15.821 0,-15.821 0,0 0.2,-7.252 -8.438,-13.185 0,0.006 -17.009,24.53 -59.068,19.519 z" />
  <path
     id="Color_Fill_3_copy"
     data-name="Color Fill 3 copy"
     fill="var(--cog-color, black)"
     d="m 67.528,136.652 7.911,-7.384 c 0,0 -0.989,-18.525 16.877,-36.39 17.866,-17.865 36.39,-17.4 36.39,-17.4 l 7.383,-7.383 c 0,0 -6.262,-39.555 20.041,-59.595 0,0 -4.549,-8.307 -14.239,-8.439 -9.69,-0.132 -15.295,0 -15.295,0 0,0 -13.778,3.165 -13.712,14.24 0.066,11.075 0,26.369 0,26.369 0,0 -16.019,2.9 -28.479,12.13 L 66.474,35.4 c 0,0 -11.142,-9.624 -20.569,-1.582 -9.427,8.042 -12.13,12.658 -12.13,12.658 0,0 -7.976,10.482 0,18.458 7.976,7.976 18.986,19.514 18.986,19.514 a 88.262,88.262 0 0 0 -12.13,28.479 H 14.262 c 0,0 -14.193,2.183 -14.24,14.24 -0.038,9.894 0,15.821 0,15.821 0,0 -0.2,7.252 8.439,13.185 0,-0.008 17.008,-24.532 59.067,-19.521 z" />
  <path
     id="Color_Fill_1"
     data-name="Color Fill 1"
     fill="var(--primary, #f06414)"
     d="m 196.41,118.131 -78.054,78.054 c 0,0 10.613,38.038 -22.678,61.705 -33.291,23.667 -51.355,6 -42.719,-2.637 L 74.582,233.631 A 26.97,26.97 0 0 0 68.25,204.092 C 54.603,190.445 39.836,192.951 36.606,196.181 l -21.1,21.1 c 0,0 -22.084,10.153 -12.657,-23.732 9.236,-33.2 40.148,-46.938 71.2,-41.664 l 77.526,-77.527 c 0,0 -7.138,-34.711 20.569,-60.122 27.909,-25.6 53.575,-8.747 47.992,-2.11 -5.493,6.531 -24.787,24.788 -24.787,24.788 0,0 -6.988,14.635 7.383,29.006 14.371,14.371 27.82,11.735 31.116,8.438 l 20.041,-20.04 c 0,0 23.466,-18.056 13.712,24.26 -9.051,39.299 -59.325,44.032 -71.191,39.553 z" />
</svg>
