<svg xmlns="http://www.w3.org/2000/svg" viewBox="0 0 2765.3 648"><defs/><defs><style>.rect-bg-edge{fill:#3fbf74}</style></defs><path d="M867.3 181H2730v286H867.3z" class="rect-bg-edge"/><rect id="Rounded_Rectangle_1" width="202.6" height="286" x="2562.7" y="181" class="rect-bg-edge" data-name="Rounded Rectangle 1" rx="40" ry="40"/><path id="Color_Fill_1" fill="#3fbf74" fill-rule="evenodd" d="M750 181l118 142-119 144.2h144V181H750z" data-name="Color Fill 1"/><path id="Workshop_codes" fill="#fff" fill-rule="evenodd" d="M976 404.4h33.6q2.9 0 3.6-3.1l14.1-77.2a.8.8 0 01.7-.7.8.8 0 01.7.7l16.2 77.4a3.5 3.5 0 003.8 3h36a3.4 3.4 0 003.6-3l40-150.7a3.2 3.2 0 00-.3-2.8 3 3 0 00-2.6-1H1087a3.4 3.4 0 00-3.6 2.9l-16.9 73.3a.7.7 0 11-1.4 0l-16.8-73.3a3.4 3.4 0 00-3.6-3h-32.9a3.5 3.5 0 00-3.8 3l-15 73.3c-.2.6-.5.9-.8.8a1 1 0 01-.6-.8L972.5 250a3.4 3.4 0 00-3.6-3h-38.3q-3.2 0-3.1 2.7a2.5 2.5 0 00.2 1.2l44.5 150.7a3.1 3.1 0 001.4 2.2 4.2 4.2 0 002.5.7zm209 2.7q19 0 33.3-7.5a54.3 54.3 0 0022.1-21.1q7.9-13.7 7.9-31.7v-42.3q0-17.5-7.9-31a53.8 53.8 0 00-22.1-21q-14.3-7.4-33.2-7.4-18.7 0-33 7.5a53.8 53.8 0 00-22.2 20.9q-7.8 13.5-7.8 31v42.3q0 18 7.9 31.7a54.3 54.3 0 0022.1 21.1q14.3 7.5 33 7.5zm0-36.2q-9.2 0-14.9-6.2t-5.7-16.5V304q0-10.4 5.7-16.5 5.8-6.2 15-6.2 9.4 0 15.2 6.2 5.7 6.1 5.7 16.5v44q0 10.4-5.7 16.6T1185 371zm152.6 33.5h37.8a3.6 3.6 0 002.3-.6 2.1 2.1 0 00.9-1.8 9.5 9.5 0 00-.5-1.6l-28.6-59.4a1 1 0 01.7-1.6 42.5 42.5 0 0020.2-16.3q7.3-11.1 7.3-26t-6.4-26.2a44.9 44.9 0 00-18-17.7q-11.6-6.3-27-6.3h-68.1a3.1 3.1 0 00-3.4 3.4v150.8a3.1 3.1 0 003.4 3.3h35.5a3.1 3.1 0 003.4-3.3v-56a1 1 0 011.1-1.2h9.5a1.4 1.4 0 011.4 1l24.7 57a3.7 3.7 0 003.8 2.5zm-39.4-121.2h21.2q7.2 0 11.7 3.9a13.2 13.2 0 014.5 10.5 13 13 0 01-4.5 10.2q-4.5 4-11.7 4h-21.1a1 1 0 01-1.2-1.2v-26.3a1 1 0 011.1-1.1zm89.4 121.2h35.5a3.1 3.1 0 003.4-3.3v-38.5a3.3 3.3 0 01.5-1.4l9.4-14.4a1.2 1.2 0 01.9-.6.8.8 0 01.7.6l31 55.4a4.1 4.1 0 004 2.2h39.9c2 0 3-.6 3-2a3.3 3.3 0 00-.7-2l-48.4-82.8a1.5 1.5 0 010-1.6l46.8-65a4 4 0 00.7-2q0-2-2.7-2h-40.3a4.8 4.8 0 00-4.3 2l-39.1 55.5q-.5.7-1 .5a.9.9 0 01-.4-1v-53.7a3.1 3.1 0 00-3.4-3.4h-35.5a3.1 3.1 0 00-3.4 3.4v150.8a3.1 3.1 0 003.4 3.3zm183.6 1.8q18.2 0 32-5.8t21.3-16.8q7.6-10.9 7.6-26 0-15.5-9.4-26.4a48.8 48.8 0 00-23.5-15q-14-4.2-15.9-5-13-4-19.3-6.5a31.5 31.5 0 01-9.4-5.4 9 9 0 01-3-7 9.4 9.4 0 014.2-8q4.1-3 11.3-3 10.4 0 16.4 5.6t6.1 12.2v.3a3.1 3.1 0 003.4 3.3h34.9a3.1 3.1 0 003.3-3.3v-2a46.9 46.9 0 00-8.2-27.3 53.8 53.8 0 00-22.5-18.4 75.8 75.8 0 00-31.8-6.6 74.2 74.2 0 00-30 5.9 49 49 0 00-21 16.8 42.6 42.6 0 00-7.7 25q0 21.4 15 32.7t37.4 18l6.5 1.8q12 3.6 16.4 6a8 8 0 014.5 7.5 10.6 10.6 0 01-3.6 7.7q-3.6 3.5-11.9 3.5-11 0-17.6-4.8T1550 354v-1.3a3.1 3.1 0 00-3.4-3.4h-34.8a3.1 3.1 0 00-3.4 3.4v3.1a46.2 46.2 0 007.8 26.6q7.7 11.5 21.9 17.7t33 6.1zm146.4-155.9v55.1a1 1 0 01-1 1.2h-35.2a1 1 0 01-1.1-1.2v-55a3.1 3.1 0 00-3.4-3.5h-35.5a3.1 3.1 0 00-3.4 3.4v150.8a3.1 3.1 0 003.4 3.3h35.5a3.1 3.1 0 003.4-3.3v-57.2a1 1 0 011.1-1.1h35.1a1 1 0 011.1 1.1v57.2a3.1 3.1 0 003.4 3.3h35.6a3.1 3.1 0 003.3-3.3V250.3a3.1 3.1 0 00-3.3-3.4H1721a3.1 3.1 0 00-3.4 3.4zm109.8 156.8q19 0 33.2-7.5a54.3 54.3 0 0022.2-21.1q7.9-13.7 7.9-31.7v-42.3q0-17.5-8-31a53.8 53.8 0 00-22-21q-14.4-7.4-33.3-7.4-18.6 0-33 7.5a53.8 53.8 0 00-22 20.9q-8 13.5-8 31v42.3q0 18 8 31.7a54.2 54.2 0 0022 21.1q14.4 7.5 33 7.5zm0-36.2q-9.2 0-15-6.2t-5.7-16.5V304q0-10.4 5.8-16.5t15-6.2q9.4 0 15.1 6.2t5.8 16.5v44q0 10.4-5.8 16.6-5.7 6.2-15.2 6.2zm138.4-124h-66a3.1 3.1 0 00-3.3 3.4v150.8a3.1 3.1 0 003.4 3.3h35.5a3.1 3.1 0 003.4-3.3v-50.7a1 1 0 011.1-1h23.9q16.4 0 29-6.4a47 47 0 0019.6-17.8q7-11.4 7-26.5 0-15.3-6.7-27.1a45.3 45.3 0 00-18.8-18.2q-12.1-6.5-28-6.5zm-7 68.7H1940a1 1 0 01-1-1.2v-30.1a1 1 0 011-1.1h19c5.5 0 10 1.5 13.3 4.5a15.2 15.2 0 015 11.9 14.6 14.6 0 01-5 11.6c-3.4 2.9-7.8 4.4-13.4 4.4zm169.5 90.6q18.4 0 32.5-6.8a52 52 0 0021.8-19.3q7.8-12.3 7.8-28.5c0-1.4-1.2-2.1-3.4-2.3l-35.6-1.8a3.2 3.2 0 00-2.4.5 2.4 2.4 0 00-1 2q0 9-5.3 14.5t-14.4 5.5q-9 0-14.4-5.5t-5.4-14.5v-48.4q0-9.2 5.4-14.7t14.4-5.5q9 0 14.4 5.5t5.4 14.7q0 2.5 2.7 2.5h.6l35.6-2.3c2.2-.3 3.4-1 3.4-2.4q0-16.2-7.8-28.5a51.5 51.5 0 00-21.8-19q-14.1-6.8-32.5-6.8t-32.6 7.2a52.8 52.8 0 00-21.8 20.3q-7.8 13-7.7 30.1v45.5q0 17.3 7.7 30.5a52.5 52.5 0 0021.8 20.3q14.1 7.2 32.6 7.2zm128.9 1q18.9 0 33.2-7.6a54.3 54.3 0 0022.1-21.1q7.9-13.7 8-31.7v-42.3q0-17.5-8-31a53.8 53.8 0 00-22.1-21q-14.3-7.4-33.2-7.4-18.7 0-33 7.5a53.7 53.7 0 00-22.1 20.9q-8 13.5-8 31v42.3q0 18 8 31.7a54.2 54.2 0 0022.1 21.1q14.3 7.5 33 7.5zm0-36.3q-9.2 0-15-6.2t-5.7-16.5V304q0-10.4 5.7-16.5t15-6.2q9.4 0 15.2 6.2t5.7 16.5v44q0 10.4-5.7 16.6t-15.2 6.2zm73.1 33.5h57.8q18.3 0 32.3-6.3t21.7-17.7a46.7 46.7 0 007.7-26.6v-56.2a46.7 46.7 0 00-7.7-26.6q-7.6-11.5-21.7-17.8t-32.3-6.3h-57.8a3.1 3.1 0 00-3.4 3.4v150.8a3.1 3.1 0 003.4 3.3zm39-37.3v-82.8a1 1 0 011-1.1h19.2a16.1 16.1 0 0113 6q5 5.9 5 15.6v41.8q-.2 9.7-5.2 15.7a15.7 15.7 0 01-12.6 6h-19.4a1 1 0 01-1-1.2zm201.7-87.3v-29.5a3.1 3.1 0 00-3.3-3.4h-107.3a3.1 3.1 0 00-3.4 3.4v150.8a3.1 3.1 0 003.4 3.3h107.3a3.1 3.1 0 003.4-3.3v-29.5a3.1 3.1 0 00-3.4-3.4h-67.3a1 1 0 01-1.1-1.1v-23.4a1 1 0 011.1-1.1h41.6a3.1 3.1 0 003.4-3.4v-29.3a3.1 3.1 0 00-3.4-3.3h-41.6a1 1 0 01-1.1-1.2v-21.1a1 1 0 011.1-1.1h67.3a3.1 3.1 0 003.4-3.4zm64.8 126.4q18.3 0 32-5.8t21.4-16.8q7.6-10.9 7.6-26 0-15.5-9.4-26.4a48.8 48.8 0 00-23.5-15q-14-4.2-15.9-5-13-4-19.4-6.5a31.5 31.5 0 01-9.3-5.4 9 9 0 01-3-7 9.3 9.3 0 014.1-8q4.2-3 11.4-3 10.3 0 16.4 5.6t6.1 12.2v.3a3.1 3.1 0 003.4 3.3h34.9a3.1 3.1 0 003.3-3.3v-2a46.8 46.8 0 00-8.2-27.3 53.7 53.7 0 00-22.5-18.4 75.7 75.7 0 00-31.8-6.6 74.2 74.2 0 00-30 5.9 49 49 0 00-21.1 16.8 42.6 42.6 0 00-7.7 25q0 21.4 15.1 32.7 15 11.2 37.4 18l6.5 1.8q12 3.6 16.4 6a8 8 0 014.5 7.5 10.6 10.6 0 01-3.6 7.7q-3.6 3.5-11.9 3.5-11 0-17.7-4.8t-6.6-11.2v-1.3a3.1 3.1 0 00-3.4-3.4h-34.8a3.1 3.1 0 00-3.4 3.4v3.1a46.2 46.2 0 007.7 26.6q7.8 11.5 22 17.7t33 6.1z" data-name="Workshop codes"/><circle cx="2009.5" cy="382.5" r="21.5" fill="#fff"/><path id="Color_Fill_4" fill-rule="evenodd" d="M329 0l268 324-268 324h205l267-324L534 0H329zM144 313l-25 29 223 116 20-24-85-158 154 81 21-23-124-229-26 30 86 158-154-80-20 22 86 157zM0 322l190-212L21 322l159 199z" data-name="Color Fill 4"/></svg>