<svg xmlns="http://www.w3.org/2000/svg" viewBox="0 0 270.25 270.062">
  <path id="Color_Fill_3" data-name="Color Fill 3" fill="var(--cog-color, black)" d="M182.528,248.324l7.911,7.384s-0.989,18.524,16.877,36.39,36.39,17.4,36.39,17.4l7.383,7.383s-6.263,39.555,20.041,59.6c0,0-4.524,8.372-14.215,8.5s-15.319-.065-15.319-0.065-13.778-3.165-13.712-14.24,0-26.369,0-26.369-16.02-2.9-28.479-12.13l-17.932,17.4s-11.141,9.625-20.568,1.583-12.13-12.658-12.13-12.658-7.977-10.482,0-18.458,18.986-19.514,18.986-19.514a88.262,88.262,0,0,1-12.13-28.479H129.262s-14.194-2.183-14.24-14.24c-0.038-9.894,0-15.821,0-15.821s-0.2-7.252,8.438-13.185C123.46,228.811,140.469,253.335,182.528,248.324Z" transform="translate(-115 -114.969)"/>
  <path id="Color_Fill_3_copy" data-name="Color Fill 3 copy" fill="var(--cog-color, black)" d="M317.722,251.621l-7.911-7.384s0.989-18.525-16.877-36.39-36.39-17.4-36.39-17.4l-7.383-7.383s6.262-39.555-20.041-59.595c0,0,4.549-8.307,14.239-8.439s15.295,0,15.295,0,13.778,3.165,13.712,14.24,0,26.369,0,26.369,16.019,2.9,28.479,12.13l17.931-17.4s11.142-9.624,20.569-1.582,12.13,12.658,12.13,12.658,7.976,10.482,0,18.458-18.986,19.514-18.986,19.514a88.262,88.262,0,0,1,12.13,28.479h26.369s14.193,2.183,14.24,14.24c0.038,9.894,0,15.821,0,15.821s0.2,7.252-8.439,13.185C376.789,271.134,359.781,246.61,317.722,251.621Z" transform="translate(-115 -114.969)"/>
  <path id="Color_Fill_1" data-name="Color Fill 1" fill="var(--primary, #f06414)" d="M188.84,233.1l78.054,78.054s-10.613,38.038,22.678,61.705,51.355,6,42.719-2.637L310.668,348.6A26.97,26.97,0,0,1,317,319.061c13.647-13.647,28.414-11.141,31.644-7.911l21.1,21.1s22.084,10.153,12.657-23.732c-9.236-33.2-40.148-46.938-71.2-41.664l-77.526-77.527s7.138-34.711-20.569-60.122c-27.909-25.6-53.575-8.747-47.992-2.11,5.493,6.531,24.787,24.788,24.787,24.788s6.988,14.635-7.383,29.006-27.82,11.735-31.116,8.438l-20.041-20.04s-23.466-18.056-13.712,24.26C126.7,232.846,176.974,237.579,188.84,233.1Z" transform="translate(-115 -114.969)"/>
</svg>
