<svg
   viewBox="0 0 1700.689 567.969"
   class="logo"
   version="1.1"
   xmlns="http://www.w3.org/2000/svg"
   xmlns:svg="http://www.w3.org/2000/svg">
  <g
     transform="matrix(-1,0,0,1,568.375,0)">
    <path
       id="Color_Fill_3"
       data-name="Color Fill 3"
       fill="var(--cog-color, black)"
       d="m 300.553,496.585 16.638,15.529 c 0,0 -2.08,38.96 35.493,76.533 37.573,37.573 76.534,36.6 76.534,36.6 l 15.528,15.529 c 0,0 -13.171,83.191 42.154,125.34 0,0 -9.514,17.607 -29.895,17.884 -20.381,0.277 -32.219,-0.137 -32.219,-0.137 0,0 -28.977,-6.655 -28.839,-29.948 0.138,-23.293 0,-55.459 0,-55.459 0,0 -33.691,-6.1 -59.895,-25.511 l -37.713,36.6 c 0,0 -23.431,20.242 -43.258,3.327 -19.827,-16.915 -25.511,-26.62 -25.511,-26.62 0,0 -16.776,-22.045 0,-38.821 16.776,-16.776 39.931,-41.04 39.931,-41.04 a 185.6,185.6 0 0 1 -25.511,-59.9 h -55.464 c 0,0 -29.851,-4.591 -29.948,-29.947 -0.08,-20.809 0,-33.276 0,-33.276 0,0 -0.416,-15.251 17.747,-27.729 0,0.007 35.775,51.583 124.228,41.046 z"
       transform="translate(-158.531,-216.125)" />
    <path
       id="Color_Fill_3_copy"
       data-name="Color Fill 3 copy"
       fill="var(--cog-color, black)"
       d="m 584.884,503.518 -16.638,-15.529 c 0,0 2.08,-38.96 -35.493,-76.533 -37.573,-37.573 -76.534,-36.6 -76.534,-36.6 l -15.528,-15.529 c 0,0 13.171,-83.188 -42.149,-125.337 0,0 9.567,-17.47 29.948,-17.747 20.381,-0.277 32.166,0 32.166,0 0,0 28.977,6.655 28.839,29.948 -0.138,23.293 0,55.459 0,55.459 0,0 33.691,6.1 59.895,25.511 l 37.712,-36.6 c 0,0 23.432,-20.242 43.258,-3.327 19.826,16.915 25.512,26.62 25.512,26.62 0,0 16.776,22.045 0,38.821 -16.776,16.776 -39.931,41.04 -39.931,41.04 a 185.6,185.6 0 0 1 25.511,59.9 h 55.459 c 0,0 29.85,4.591 29.948,29.947 0.08,20.809 0,33.276 0,33.276 0,0 0.416,15.251 -17.747,27.729 0,-0.01 -35.771,-51.587 -124.228,-41.049 z"
       transform="translate(-158.531,-216.125)" />
    <path
       id="Color_Fill_1"
       data-name="Color Fill 1"
       fill="var(--primary, #f06414)"
       d="m 313.828,464.558 164.159,164.158 c 0,0 -22.322,80 47.695,129.774 70.017,49.774 108.006,12.617 89.843,-5.546 -18.163,-18.163 -45.476,-45.476 -45.476,-45.476 0,0 -15.39,-33.414 13.31,-62.114 28.7,-28.7 59.757,-23.431 66.551,-16.638 l 44.367,44.368 c 0,0 46.447,21.351 26.62,-49.914 -19.424,-69.817 -84.436,-98.717 -149.739,-87.625 L 408.109,372.5 c 0,0 15.013,-73 -43.258,-126.447 -58.7,-53.834 -112.678,-18.4 -100.936,-4.436 11.553,13.735 52.132,52.131 52.132,52.131 0,0 14.7,30.78 -15.529,61.005 -30.229,30.225 -58.509,24.679 -65.441,17.747 l -42.149,-42.149 c 0,0 -49.352,-37.974 -28.839,51.022 19.053,82.659 124.783,92.613 149.739,83.185 z"
       transform="translate(-158.531,-216.125)" />
  </g>
  <g>
    <path
       id="Rounded_Rectangle_1"
       data-name="Rounded Rectangle 1"
       fill="var(--primary, #f06414)"
       d="m 234.469,388.406 h 1416.22 a 50,50 0 0 0 50,-50 V 228.875 a 50,50 0 0 0 -50,-50 H 327.344 Z" />
    <circle
       fill="#ffffff"
       cx="829.92017"
       cy="327.28201"
       r="15.435"
       id="circle1" />
    <path
       id="codes"
       data-name="codes"
       d="m 376.08407,345.675 c 9.46,0 17.8,-1.76033 25.02,-5.281 6.891,-3.23513 12.7157,-8.36948 16.79,-14.8 4.0601,-6.60486 6.1358,-14.23763 5.98,-21.989 0,-1.039 -0.87,-1.615 -2.6,-1.732 l -27.36,-1.385 c -0.6542,-0.14353 -1.3387,-0.0185 -1.9,0.347 -0.4732,0.3735 -0.7314,0.95658 -0.69,1.558 0,4.618 -1.3866,8.34067 -4.16,11.168 -2.7733,2.82734 -6.4666,4.24134 -11.08,4.242 -4.62,0 -8.3133,-1.414 -11.08,-4.242 -2.7666,-2.828 -4.1533,-6.55066 -4.16,-11.168 v -37.228 c 0,-4.73333 1.3867,-8.51333 4.16,-11.34 2.7734,-2.82666 6.4667,-4.24066 11.08,-4.242 4.62,0 8.3134,1.414 11.08,4.242 2.7667,2.828 4.1534,6.608 4.16,11.34 0,1.272 0.69,1.90534 2.07,1.9 h 0.52 l 27.36,-1.731 c 1.73,-0.23 2.6,-0.866 2.6,-1.9 0.4716,-15.65516 -8.5073,-30.06127 -22.77,-36.533 -7.22,-3.46333 -15.56,-5.19466 -25.02,-5.194 -9.47,0 -17.81,1.84667 -25.02,5.54 -6.9755,3.47634 -12.8039,8.88573 -16.79,15.583 -4.0791,7.04025 -6.1476,15.0651 -5.98,23.2 v 34.975 c -0.1751,8.21807 1.8923,16.32853 5.98,23.46 3.9638,6.7369 9.7959,12.17998 16.79,15.67 7.21,3.69534 15.55,5.542 25.02,5.54 z m 97.48,0.693 c 9.69,0 18.2034,-1.93333 25.54,-5.8 7.1287,-3.67505 13.048,-9.32562 17.05,-16.276 4.04,-6.982 6.06,-15.09066 6.06,-24.326 v -32.55 c 0.1643,-8.36425 -1.9291,-16.61812 -6.06,-23.893 -4.011,-6.89922 -9.9324,-12.49067 -17.05,-16.1 -7.33,-3.81 -15.8433,-5.71466 -25.54,-5.714 -9.58,0 -18.0366,1.90467 -25.37,5.714 -7.1176,3.60933 -13.039,9.20078 -17.05,16.1 -4.1308,7.27488 -6.2242,15.52875 -6.06,23.893 v 32.551 c 0,9.236 2.02,17.34467 6.06,24.326 4.0021,6.95038 9.9213,12.60095 17.05,16.276 7.3334,3.86667 15.79,5.8 25.37,5.8 v 0 z m 0,-27.876 c -4.3492,0.16174 -8.5539,-1.57595 -11.52,-4.761 -2.94,-3.174 -4.41,-7.416 -4.41,-12.726 v -33.93 c 0,-5.308 1.47,-9.55 4.41,-12.726 2.9669,-3.18393 7.171,-4.9214 11.52,-4.761 4.4026,-0.18242 8.6676,1.55461 11.69,4.761 2.94,3.176 4.41,7.418 4.41,12.726 v 33.936 c 0,5.31 -1.47,9.552 -4.41,12.726 -3.0215,3.20762 -7.2872,4.9449 -11.69,4.761 v 0 z m 54.54,25.8 h 44.49 c 8.5333,0.16296 17.0038,-1.48955 24.85,-4.848 6.7653,-2.86446 12.5653,-7.61207 16.71,-13.678 3.9722,-6.06308 6.0215,-13.18401 5.88,-20.431 v -43.286 c 0.1412,-7.24693 -1.9082,-14.36775 -5.88,-20.431 -4.1456,-6.06512 -9.9453,-10.81252 -16.71,-13.678 -7.8467,-3.35701 -16.3168,-5.00946 -24.85,-4.848 h -44.49 c -1.4881,-0.13465 -2.7346,1.11185 -2.6,2.6 v 116 c -0.1354,1.48844 1.1116,2.73544 2.6,2.6 z m 29.95,-28.741 v -63.717 c -0.072,-0.50279 0.3567,-0.93503 0.86,-0.866 h 14.72 c 3.8802,-0.12582 7.5956,1.572 10.04,4.588 2.54,3.06 3.81,7.071 3.81,12.033 v 32.2 c -0.11,4.964 -1.4366,8.975 -3.98,12.033 -2.3338,2.96179 -5.9199,4.65974 -9.69,4.588 h -14.9 c -0.5031,0.0698 -0.9327,-0.36228 -0.86,-0.865 v 0 z m 153.58,-67.176 v -22.686 c 0.1247,-1.48452 -1.1154,-2.72468 -2.6,-2.6 h -82.59 c -1.4845,-0.12468 -2.7246,1.11548 -2.6,2.6 v 116 c -0.1262,1.48508 1.115,2.7262 2.6,2.6 h 82.59 c 1.4851,0.1262 2.7262,-1.11492 2.6,-2.6 v -22.677 c 0.1247,-1.48452 -1.1154,-2.72468 -2.6,-2.6 h -51.77 c -0.506,0.0745 -0.9415,-0.3585 -0.87,-0.865 v -18.004 c -0.07,-0.50625 0.3641,-0.93876 0.87,-0.866 h 32.03 c 0.7016,0.0403 1.3887,-0.20997 1.9,-0.692 0.4837,-0.51277 0.7366,-1.20105 0.7,-1.905 v -22.505 c 0.036,-0.7038 -0.2171,-1.39173 -0.7,-1.905 -0.5117,-0.48131 -1.1986,-0.73147 -1.9,-0.692 h -32.03 c -0.5062,0.0737 -0.9413,-0.35943 -0.87,-0.866 v -16.278 c -0.071,-0.50656 0.3638,-0.9397 0.87,-0.866 h 51.77 c 1.4846,0.12468 2.7247,-1.11548 2.6,-2.6 v 0 z m 48.13,97.305 c 9.35,0 17.5434,-1.5 24.58,-4.5 6.5981,-2.64897 12.3043,-7.12379 16.45,-12.9 3.92,-5.6 5.8834,-12.26666 5.89,-20 0.1823,-7.44805 -2.4086,-14.69827 -7.27,-20.344 -4.7731,-5.54889 -11.0646,-9.581 -18.1,-11.6 -7.21,-2.13333 -11.2766,-3.374 -12.2,-3.722 -6.7,-2.078 -11.6633,-3.78066 -14.89,-5.108 -2.6186,-0.95985 -5.0512,-2.36596 -7.19,-4.156 -1.5123,-1.33476 -2.3669,-3.26304 -2.34,-5.28 -0.082,-2.49349 1.1324,-4.85179 3.21,-6.233 2.13,-1.5 5.05,-2.251 8.74,-2.251 5.31,0 9.5234,1.414 12.64,4.242 3.1167,2.828 4.6734,5.97334 4.67,9.436 v 0.173 c -0.1262,1.48508 1.115,2.7262 2.6,2.6 h 26.84 c 0.7016,0.0403 1.3887,-0.20997 1.9,-0.692 0.4824,-0.51154 0.7352,-1.19775 0.7,-1.9 v -1.57 c 0.1131,-7.46923 -2.0952,-14.78938 -6.32,-20.95 -4.3593,-6.23446 -10.3518,-11.14752 -17.32,-14.2 -7.7071,-3.42668 -16.0662,-5.13978 -24.5,-5.021 -7.9322,-0.12142 -15.8028,1.41114 -23.11,4.5 -6.4967,2.70157 -12.1057,7.17075 -16.19,12.9 -3.946,5.65482 -6.0071,12.41051 -5.89,19.305 0,10.96667 3.8667,19.33334 11.6,25.1 7.7334,5.76667 17.3134,10.384 28.74,13.852 l 5.03,1.385 c 6.11,1.848 10.3234,3.40634 12.64,4.675 2.1753,1.05955 3.5288,3.29441 3.46,5.713 -0.046,2.29132 -1.051,4.45828 -2.77,5.974 -1.85,1.79134 -4.91,2.686 -9.18,2.684 -5.66,0 -10.19,-1.241 -13.59,-3.723 -3.41,-2.48066 -5.1133,-5.33766 -5.11,-8.571 v -1.038 c 0.1347,-1.48815 -1.1118,-2.73465 -2.6,-2.6 h -26.83 c -1.4881,-0.13465 -2.7346,1.11185 -2.6,2.6 v 2.424 c -0.1399,7.25946 1.9432,14.38816 5.97,20.43 4.2017,6.06441 10.0673,10.78462 16.89,13.592 7.2667,3.176 15.75,4.763 25.45,4.761 v 0 z"
       fill="white" />
    <path
       id="workshop"
       data-name="workshop"
       fill="#ffffff"
       d="m 869.07479,344.291 h 25.8 c 1.42504,0.0686 2.64899,-1.00245 2.77,-2.424 l 10.908,-59.387 c -0.0318,-0.72373 1.07076,-0.72373 1.039,0 l 12.466,59.56 c 0.23019,1.41168 1.52134,2.3989 2.944,2.251 h 27.7 c 1.37425,0.10259 2.58984,-0.88488 2.771,-2.251 l 30.819,-116 c 0.2579,-0.72215 0.16162,-1.5235 -0.26,-2.164 -0.50257,-0.56073 -1.24135,-0.84978 -1.991,-0.779 h -29.607 c -1.37425,-0.10259 -2.58984,0.88488 -2.771,2.251 l -12.985,56.444 c 0.1866,0.64199 -1.2256,0.64199 -1.039,0 l -12.986,-56.444 c -0.18114,-1.36571 -1.39612,-2.35304 -2.77,-2.251 h -25.279 c -1.42229,-0.14734 -2.71282,0.83975 -2.943,2.251 l -11.6,56.444 c -0.116,0.463 -0.289,0.666 -0.519,0.606 -0.26857,-0.0952 -0.46626,-0.32599 -0.519,-0.606 l -14.717,-56.444 c -0.18116,-1.36612 -1.39675,-2.35359 -2.771,-2.251 h -29.435 c -1.618,0 -2.426,0.69267 -2.424,2.078 -0.0104,0.29787 0.0488,0.59406 0.173,0.865 l 34.282,116 c 0.0986,0.67042 0.47597,1.26793 1.039,1.645 0.55371,0.39705 1.21865,0.60913 1.9,0.606 v 0 z m 159.11701,2.078 c 9.696,0 18.2087,-1.93333 25.538,-5.8 7.1295,-3.67576 13.0502,-9.32604 17.055,-16.276 4.0387,-6.982 6.0583,-15.09067 6.059,-24.326 v -32.551 c 0.1641,-8.3641 -1.929,-16.61784 -6.059,-23.893 -4.0138,-6.89882 -9.9366,-12.49 -17.055,-16.1 -7.3333,-3.81 -15.846,-5.71467 -25.538,-5.714 -9.5827,0 -18.038,1.90467 -25.366,5.714 -7.11915,3.60861 -13.04201,9.20014 -17.05401,16.1 -4.13171,7.27452 -6.22521,15.52864 -6.06,23.893 v 32.551 c 0,9.236 2.02,17.34467 6.06,24.326 4.00302,6.95101 9.92378,12.60166 17.05401,16.276 7.3293,3.86667 15.7847,5.8 25.366,5.8 z m 0,-27.876 c -4.3476,0.16212 -8.5505,-1.57578 -11.514,-4.761 -2.944,-3.174 -4.4157,-7.416 -4.415,-12.726 v -33.931 c 0,-5.308 1.4717,-9.55 4.415,-12.726 2.9633,-3.18595 7.1659,-4.9255 11.514,-4.766 4.4018,-0.18328 8.6663,1.55397 11.687,4.761 2.9427,3.176 4.4143,7.418 4.415,12.726 v 33.936 c 0,5.31 -1.4717,9.552 -4.415,12.726 -3.0199,3.20815 -7.2849,4.94562 -11.687,4.761 z m 115.656,25.8 h 29.088 c 0.6184,0.0225 1.227,-0.15992 1.731,-0.519 0.447,-0.31761 0.7068,-0.83679 0.693,-1.385 -0.08,-0.41317 -0.1961,-0.81867 -0.346,-1.212 l -21.99,-45.71 c -0.2743,-0.47632 -0.014,-1.08254 0.52,-1.212 6.349,-2.46601 11.7684,-6.85501 15.5,-12.553 3.822,-5.95911 5.7811,-12.92221 5.627,-20 0.1437,-7.03902 -1.5574,-13.99308 -4.934,-20.171 -3.2228,-5.76192 -8.0301,-10.47897 -13.852,-13.592 -6.3784,-3.33514 -13.4969,-5.00253 -20.693,-4.847 h -52.462 c -1.4865,-0.13002 -2.73,1.11353 -2.6,2.6 v 116 c -0.1339,1.48787 1.1121,2.73388 2.6,2.6 h 27.356 c 1.4865,0.13002 2.73,-1.11353 2.6,-2.6 v -43.11 c -0.072,-0.50483 0.3601,-0.93783 0.865,-0.866 h 7.272 c 0.4553,-0.003 0.8664,0.27169 1.039,0.693 l 19.046,43.978 c 0.4185,1.24165 1.6391,2.02968 2.943,1.9 v 0 z m -30.3,-93.323 h 16.276 c 3.2722,-0.14253 6.4803,0.93754 9,3.03 2.3104,2.02336 3.5831,4.98219 3.463,8.051 0.096,3.01455 -1.1768,5.91075 -3.463,7.878 -2.519,2.09374 -5.7276,3.17398 -9,3.03 h -16.275 c -0.5056,0.0737 -0.9393,-0.36054 -0.865,-0.866 v -20.259 c -0.073,-0.50515 0.3598,-0.93878 0.865,-0.866 v 0 z m 67,93.323 h 27.357 c 1.4865,0.13002 2.73,-1.11353 2.6,-2.6 v -29.606 c 0.042,-0.36666 0.1595,-0.72056 0.346,-1.039 l 7.272,-11.081 c 0.1305,-0.27749 0.3901,-0.47225 0.693,-0.52 0.2713,0.0348 0.4847,0.24863 0.519,0.52 l 23.894,42.593 c 0.5852,1.16163 1.8206,1.84791 3.116,1.731 h 30.647 c 1.4987,0 2.249,-0.51933 2.251,-1.558 0.01,-0.56252 -0.178,-1.1106 -0.519,-1.558 l -37.226,-63.716 c -0.233,-0.37078 -0.233,-0.84222 0,-1.213 l 36.014,-50.037 c 0.3101,-0.46352 0.4894,-1.00211 0.519,-1.559 0,-1.03867 -0.6927,-1.558 -2.078,-1.558 h -30.991 c -1.2952,-0.0999 -2.5466,0.49273 -3.29,1.558 l -30.126,42.766 c -0.233,0.347 -0.463,0.463 -0.693,0.347 -0.2443,-0.14033 -0.3806,-0.41342 -0.346,-0.693 v -41.381 c 0.13,-1.48647 -1.1135,-2.73002 -2.6,-2.6 h -27.354 c -1.4865,-0.13002 -2.73,1.11353 -2.6,2.6 v 116 c -0.13,1.48647 1.1135,2.73002 2.6,2.6 v 0 z m 139.55,1.385 c 9.35,0 17.5457,-1.5 24.587,-4.5 6.5966,-2.65055 12.3018,-7.1251 16.448,-12.9 3.9233,-5.6 5.8857,-12.26667 5.887,-20 0.1852,-7.44889 -2.4068,-14.70038 -7.272,-20.344 -4.7718,-5.54765 -11.0609,-9.57962 -18.094,-11.6 -7.2153,-2.13333 -11.284,-3.374 -12.206,-3.722 -6.696,-2.078 -11.6593,-3.78067 -14.89,-5.108 -2.6168,-0.96118 -5.0479,-2.36719 -7.186,-4.156 -1.5108,-1.33564 -2.3642,-3.26363 -2.337,-5.28 -0.084,-2.49155 1.1262,-4.84944 3.2,-6.233 2.1333,-1.49933 5.048,-2.24967 8.744,-2.251 5.308,0 9.521,1.414 12.639,4.242 3.118,2.828 4.6763,5.97333 4.675,9.436 v 0.173 c -0.1339,1.48787 1.1121,2.73388 2.6,2.6 h 26.837 c 1.4879,0.13388 2.7339,-1.11213 2.6,-2.6 v -1.56 c 0.1144,-7.46926 -2.0936,-14.7897 -6.319,-20.95 -4.3565,-6.23513 -10.3477,-11.14848 -17.315,-14.2 -7.7074,-3.42605 -16.0663,-5.13912 -24.5,-5.021 -7.9339,-0.1211 -15.806,1.41144 -23.115,4.5 -6.4955,2.70273 -12.1035,7.17171 -16.188,12.9 -3.9433,5.65595 -6.0033,12.41108 -5.887,19.305 0,10.96667 3.8667,19.33333 11.6,25.1 7.7333,5.76667 17.315,10.38867 28.745,13.866 l 5.021,1.385 c 6.1173,1.848 10.3303,3.40633 12.639,4.675 2.1784,1.05652 3.534,3.29298 3.463,5.713 -0.044,2.29185 -1.0491,4.45971 -2.77,5.974 -1.848,1.79133 -4.907,2.686 -9.177,2.684 -5.656,0 -10.1863,-1.241 -13.591,-3.723 -3.4047,-2.482 -5.1073,-5.339 -5.108,-8.571 v -1.038 c 0.13,-1.48647 -1.1135,-2.73002 -2.6,-2.6 h -26.836 c -1.4865,-0.13002 -2.73,1.11353 -2.6,2.6 v 2.424 c -0.1397,7.25986 1.9446,14.38874 5.973,20.43 4.2009,6.06282 10.0655,10.78137 16.887,13.587 7.2707,3.176 15.7543,4.763 25.451,4.761 v 0 z m 110.984,-119.989 v 42.42 c 0.073,0.5031 -0.3564,0.93597 -0.86,0.866 h -27.01 c -0.5062,0.0737 -0.9414,-0.35943 -0.87,-0.866 v -42.42 c 0.1347,-1.48816 -1.1118,-2.73466 -2.6,-2.6 h -27.35 c -1.4865,-0.13002 -2.73,1.11353 -2.6,2.6 v 116 c -0.13,1.48647 1.1135,2.73002 2.6,2.6 h 27.35 c 1.4884,0.13543 2.7354,-1.11156 2.6,-2.6 v -43.973 c -0.07,-0.50625 0.3641,-0.93876 0.87,-0.866 h 27.01 c 0.503,-0.0681 0.9316,0.36352 0.86,0.866 v 43.978 c -0.1262,1.48508 1.1149,2.7262 2.6,2.6 h 27.36 c 1.4851,0.1303 2.726,-1.11541 2.59,-2.6 v -116 c 0.1345,-1.48403 -1.1055,-2.72875 -2.59,-2.6 h -27.36 c -1.4845,-0.12468 -2.7247,1.11548 -2.6,2.6 v 0 z m 82.76,120.68 c 9.7,0 18.2133,-1.93333 25.54,-5.8 7.1295,-3.67754 13.0514,-9.32727 17.06,-16.276 4.04,-6.982 6.06,-15.09067 6.06,-24.326 v -32.551 c 0.1643,-8.36425 -1.9292,-16.61812 -6.06,-23.893 -4.0176,-6.89757 -9.9416,-12.48819 -17.06,-16.1 -7.3333,-3.81 -15.8467,-5.71467 -25.54,-5.714 -9.58,0 -18.0333,1.90467 -25.36,5.714 -7.1204,3.60898 -13.0451,9.20029 -17.06,16.1 -4.1308,7.27488 -6.2243,15.52875 -6.06,23.893 v 32.551 c 0,9.236 2.02,17.34467 6.06,24.326 4.0059,6.95087 9.9285,12.6013 17.06,16.276 7.33,3.86667 15.7833,5.8 25.36,5.8 z m 0,-27.876 c -4.3464,0.16175 -8.5479,-1.57618 -11.51,-4.761 -2.94,-3.174 -4.4133,-7.416 -4.42,-12.726 v -33.931 c 0,-5.308 1.4733,-9.55 4.42,-12.726 2.9629,-3.18359 7.1639,-4.92127 11.51,-4.761 4.4029,-0.18443 8.6688,1.55293 11.69,4.761 2.94,3.176 4.4133,7.418 4.42,12.726 v 33.936 c 0,5.31 -1.4733,9.552 -4.42,12.726 -3.0204,3.2093 -7.2868,4.9469 -11.69,4.761 v 0 z m 104.75,-95.4 h -50.73 c -1.4845,-0.12468 -2.7247,1.11548 -2.6,2.6 v 116 c -0.1262,1.48508 1.1149,2.7262 2.6,2.6 h 27.36 c 1.4851,0.1262 2.7262,-1.11492 2.6,-2.6 v -38.956 c -0.075,-0.50373 0.3558,-0.93787 0.86,-0.866 h 18.35 c 7.7236,0.15601 15.3758,-1.5046 22.34,-4.848 6.2283,-3.02 11.4563,-7.7682 15.06,-13.678 3.6583,-6.17674 5.5182,-13.25271 5.37,-20.43 0.1428,-7.28102 -1.6187,-14.47306 -5.11,-20.864 -3.3331,-5.99366 -8.3593,-10.87166 -14.45,-14.024 -6.7016,-3.3989 -14.1375,-5.09387 -21.65,-4.935 v 0 z m -5.37,52.808 h -14.54 c -0.5044,0.0736 -0.9365,-0.36103 -0.86,-0.865 v -23.2 c -0.076,-0.50404 0.3554,-0.93882 0.86,-0.866 h 14.54 c 4.2667,0 7.7033,1.15433 10.31,3.463 2.5997,2.32584 4.026,5.69038 3.89,9.176 0.1239,3.40868 -1.3072,6.68911 -3.89,8.917 -2.6,2.25067 -6.0367,3.376 -10.31,3.376 v 0 z" />
  </g>
</svg>
