<?xml version="1.0" encoding="UTF-8"?>
<!-- Generator: Adobe Illustrator 23.0.3, SVG Export Plug-In . SVG Version: 6.00 Build 0)  -->
<svg version="1.1" id="Layer_1" xmlns="http://www.w3.org/2000/svg" xmlns:xlink="http://www.w3.org/1999/xlink" x="0px" y="0px" viewBox="0 0 50 36.3" style="enable-background:new 0 0 50 36.3;" xml:space="preserve">
<style type="text/css">
	.st0{fill:#FFFFFF;}
	.st1{fill:#F06414;}
</style>
<path class="st0" d="M18.1,5.2c3.1,0,6.1,1.1,8.5,3.2l3.7-3.7C23.4-1.5,12.9-1.5,6,4.7l3.6,3.7C12,6.3,15,5.2,18.1,5.2z"/>
<path class="st0" d="M31.4,5.8l-3.7,3.7c3.7,4.1,4.4,10.1,1.7,15l-7.3-7l-3.3-7.9v11.9l7.2,6.9c-4.7,3.7-11.2,3.7-15.9,0l7.2-6.9  V9.6l-3.3,7.9l-7.3,7c-2.7-4.9-2-10.9,1.7-15L4.9,5.8C-2,13.1-1.6,24.6,5.8,31.4s18.8,6.4,25.7-0.9C37.9,23.5,37.9,12.7,31.4,5.8z"/>
<path class="st1" d="M48.5,10.2H39c-1-2.8-2.6-5.3-4.7-7.4l-1.6,1.7c7.2,7.7,7.2,19.6,0,27.3l1.7,1.7c2-2.1,3.6-4.7,4.6-7.4h9.4  c0.8,0,1.5-0.6,1.6-1.5c0,0,0,0,0,0V11.8C50,10.9,49.3,10.2,48.5,10.2z"/>
<path class="st0" d="M42.9,21.2l3.8-3.5c0.2-0.2,0.4-0.4,0.6-0.7c0.3-0.3,0.4-0.8,0.4-1.2v-0.9c0-0.1,0-0.3,0-0.4  c0-0.2-0.1-0.3-0.1-0.4l-6.4,6c-0.2,0.2-0.4,0.4-0.6,0.6c-0.3,0.4-0.5,0.8-0.5,1.3v1.3h6.5c0.3,0,0.5-0.1,0.7-0.2  c0.5-0.3,0.7-0.9,0.7-1.5v-0.5L42.9,21.2z M46.9,13.3C46.6,13.1,46.3,13,46,13h-3.8c-0.1,0-0.2,0-0.4,0c-0.5,0.2-0.9,0.5-1.1,0.9  c-0.2,0.4-0.4,0.9-0.4,1.4v1h2.2v-1.2H45L46.9,13.3z"/>
<path class="st0" d="M31.5,33.3h-0.1v0.2h-0.1v-0.5h0.2c0.1,0,0.1,0.1,0.2,0.1c0,0,0,0,0,0C31.7,33.2,31.7,33.2,31.5,33.3l0.2,0.2  h-0.1L31.5,33.3z M31.4,33.2h0.1c0.1,0,0.1,0,0.1-0.1c0-0.1,0-0.1-0.1-0.1h-0.1V33.2z"/>
<path class="st0" d="M31.5,33.7c-0.3,0-0.5-0.2-0.5-0.5c0,0,0,0,0,0c0-0.3,0.2-0.5,0.5-0.5s0.5,0.2,0.5,0.5l0,0  C32,33.5,31.8,33.7,31.5,33.7z M31.5,32.8c-0.2,0-0.4,0.2-0.4,0.4c0,0,0,0,0,0c0,0.2,0.2,0.4,0.4,0.4c0.2,0,0.4-0.2,0.4-0.4  c0,0,0,0,0,0C31.9,33,31.8,32.8,31.5,32.8z"/>
</svg>