<svg x="0" y="0" viewBox="0 0 50 36.3" style="enable-background:new 0 0 50 36.3"><style>.st0{fill:#fff}</style><path class="st0" d="M18.1 5.2c3.1 0 6.1 1.1 8.5 3.2l3.7-3.7C23.4-1.5 12.9-1.5 6 4.7l3.6 3.7C12 6.3 15 5.2 18.1 5.2z"/><path class="st0" d="m31.4 5.8-3.7 3.7c3.7 4.1 4.4 10.1 1.7 15l-7.3-7-3.3-7.9v11.9l7.2 6.9c-4.7 3.7-11.2 3.7-15.9 0l7.2-6.9V9.6L14 17.5l-7.3 7c-2.7-4.9-2-10.9 1.7-15L4.9 5.8c-6.9 7.3-6.5 18.8.9 25.6s18.8 6.4 25.7-.9c6.4-7 6.4-17.8-.1-24.7z"/><path d="M48.5 10.2H39c-1-2.8-2.6-5.3-4.7-7.4l-1.6 1.7c7.2 7.7 7.2 19.6 0 27.3l1.7 1.7c2-2.1 3.6-4.7 4.6-7.4h9.4c.8 0 1.5-.6 1.6-1.5V11.8c0-.9-.7-1.6-1.5-1.6z" style="fill:#f06414"/><path class="st0" d="m42.9 21.2 3.8-3.5c.2-.2.4-.4.6-.7.3-.3.4-.8.4-1.2v-1.3c0-.2-.1-.3-.1-.4l-6.4 6-.6.6c-.3.4-.5.8-.5 1.3v1.3h6.5c.3 0 .5-.1.7-.2.5-.3.7-.9.7-1.5v-.5l-5.1.1zm4-7.9c-.3-.2-.6-.3-.9-.3h-4.2c-.5.2-.9.5-1.1.9-.2.4-.4.9-.4 1.4v1h2.2v-1.2H45l1.9-1.8zM31.5 33.3h-.1v.2h-.1V33h.2c.1 0 .1.1.2.1 0 .1 0 .1-.2.2l.2.2h-.1l-.1-.2zm-.1-.1h.1c.1 0 .1 0 .1-.1s0-.1-.1-.1h-.1v.2z"/><path class="st0" d="M31.5 33.7c-.3 0-.5-.2-.5-.5s.2-.5.5-.5.5.2.5.5-.2.5-.5.5zm0-.9c-.2 0-.4.2-.4.4s.2.4.4.4.4-.2.4-.4-.1-.4-.4-.4z"/></svg>
