<svg xmlns="http://www.w3.org/2000/svg" fill="#fff" width="40" height="40" viewBox="0 0 478.125 478.125"><circle cx="239.904" cy="314.721" r="35.878"/><path d="M256.657 127.525h-31.9c-10.557 0-19.125 8.645-19.125 19.125v101.975c0 10.48 8.645 19.125 19.125 19.125h31.9c10.48 0 19.125-8.645 19.125-19.125V146.65c0-10.48-8.644-19.125-19.125-19.125zM239.062 0C106.947 0 0 106.947 0 239.062s106.947 239.062 239.062 239.062 239.062-106.947 239.062-239.062S371.178 0 239.062 0zm.23 409.734c-94.171 0-170.595-76.348-170.595-170.596S145.044 68.543 239.292 68.543s170.595 76.347 170.595 170.595-76.423 170.596-170.595 170.596z"/></svg>
