<svg enable-background="new 0 0 100 100" viewBox="0 0 100 100" xmlns="http://www.w3.org/2000/svg">
	<g fill="#ffc907">
		<path d="m66 24.2 5 8.7h13.1l-11.6-20.1c-.5-.9-1.6-1.5-2.6-1.5h-39.8l6.6 11.4h26.6c1.1 0 2.1.6 2.7 1.5z" />
		<path d="m63.3 77.3h-26.6l-6.5 11.4h39.7c1.1 0 2.1-.6 2.6-1.5l11.6-20.1h-13.1l-5 8.7c-.6.9-1.6 1.5-2.7 1.5z" />
		<path
			d="m18.8 48.2 13-22.6-6.6-11.4-19.7 34.3c-.5.9-.5 2.1 0 3.1l19.8 34.3 6.6-11.4-13-22.6c-.8-1.2-.8-2.6-.1-3.7z" />
		<path d="m92.3 47.1h-45.7c-.3 0-.6-.3-.5-.6l2.1-8c.1-.2.3-.4.5-.4h45.7c.3 0 .6.3.5.6l-2.1 8c-.1.3-.3.4-.5.4z" />
		<path d="m92.3 61.9h-45.7c-.3 0-.6-.3-.5-.6l2.1-8c.1-.2.3-.4.5-.4h45.7c.3 0 .6.3.5.6l-2.1 8c-.1.2-.3.4-.5.4z" />
	</g>
</svg>